<svg version="1.1" xmlns="http://www.w3.org/2000/svg" xmlns:xlink="http://www.w3.org/1999/xlink"
  viewBox="0 0 1920 1080" enable-background="new 0 0 1920 1080" xml:space="preserve">
  <g>
    <g>
      <g>
        <g>
          <polygon fill="#FFFFFF" points="1344.98,330.75 1344.98,437.24 1224.73,437.24 1224.73,676.56 873.52,676.56 874.04,643.85 
            1203.23,330.23 					"/>
          <g>
            <path fill="#0C1238" d="M1095.671,677.537c-18.553,0.074-37.107,0.163-55.66,0.126c-18.553,0.056-37.107-0.188-55.66-0.233
              l-13.915-0.063l-13.915,0.044l-27.83,0.094c-18.553,0.128-37.107-0.005-55.66-0.056l-1.266-0.003l0.003-1.259l0.047-22.532
              l-0.093-22.532l-0.068-11.266l0.006-11.266l0.019-22.532h2.703l0.111,22.532c0.053,7.511,0.06,15.022,0.038,22.532
              l-0.094,45.065l-1.407-1.407c18.553,0.007,37.107-0.041,55.66,0.086l27.83,0.131l13.915,0.066l13.915-0.028
              c18.553-0.008,37.107-0.151,55.66-0.019c18.553,0.099,37.107,0.049,55.66-0.181V677.537z"/>
          </g>
          <g>
            <path fill="#0C1238" d="M1225.038,677.537c-9.24,0.123-18.48,0.187-27.72,0.077l-13.86-0.213
              c-2.31-0.051-4.62-0.023-6.93,0.001l-6.93,0.062c-9.24,0.156-18.48,0.076-27.72-0.054c-2.31-0.034-4.62,0.001-6.93,0.002
              l-6.93,0.121c-4.62,0.062-9.24-0.002-13.86,0.003v-2.703c4.62-0.048,9.24-0.165,13.86-0.157l6.93,0.025
              c2.31,0.027,4.62,0.088,6.93,0.076c9.24-0.024,18.48-0.031,27.72,0.145c4.62,0.038,9.24,0.163,13.86,0.126l13.86-0.081
              c4.62-0.04,9.24,0.088,13.86,0.101c2.31,0.047,4.62-0.048,6.93-0.065c2.31-0.026,4.62-0.07,6.93-0.169V677.537z"/>
          </g>
          <g>
            <path fill="#0C1238" d="M871.679,561.775l-0.13-115.718l0.07-115.718l0.001-1.414l1.411,0.003l117.902,0.228l117.902-0.138
              l58.951-0.061l58.951,0.072l117.902,0.09l1.218,0.001l0.004,1.221l0.156,53.426l-0.026,53.426h-2.703l-0.154-53.426
              l0.04-53.426l1.466,1.466l-235.804-0.148l-117.902-0.193l-117.902,0.087l1.212-1.212l-0.084,115.718
              c-0.058,19.286,0.032,38.573,0.074,57.859l0.15,57.859H871.679z"/>
          </g>
          <g>
            <circle fill="#E6E8F0" cx="891.371" cy="344.487" r="6.812"/>
            <circle fill="#E6E8F0" cx="912.856" cy="345.011" r="6.812"/>
            <circle fill="#E6E8F0" cx="934.34" cy="345.535" r="6.812"/>
            <path fill="#E6E8F0" stroke="#F0F3F5" stroke-miterlimit="10" d="M1202.681,352.872h-186.643c-0.552,0-1-0.448-1-1v-11.624
              c0-0.552,0.448-1,1-1h186.643c0.552,0,1,0.448,1,1v11.624C1203.681,352.424,1203.233,352.872,1202.681,352.872z"/>
            <rect x="1288.571" y="339.247" fill="#E6E8F0" width="17.816" height="13.624"/>
            <path fill="#E6E8F0" d="M1327.395,352.872h-15.816c-0.552,0-1-0.448-1-1v-11.624c0-0.552,0.448-1,1-1h15.816
              c0.552,0,1,0.448,1,1v11.624C1328.395,352.424,1327.948,352.872,1327.395,352.872z"/>
          </g>
          <g>
            <path fill="none" stroke="#8891EA" stroke-width="8" stroke-miterlimit="10" d="M1098.345,576.802L1098.345,576.802
              c-24.295,0-43.99-19.695-43.99-43.99v-29.485c0-2.209,1.791-4,4-4h79.98c2.209,0,4,1.791,4,4v29.485
              C1142.335,557.107,1122.64,576.802,1098.345,576.802z"/>
            <path fill="none" stroke="#8891EA" stroke-width="8" stroke-miterlimit="10" d="M1066.044,499.326v-12.41
              c0-17.804,14.433-32.237,32.237-32.237l0,0c17.804,0,32.237,14.433,32.237,32.237v12.41"/>
          </g>
          <circle fill="#8891EA" cx="1098.28" cy="529.084" r="8.966"/>
          
            <line fill="#FFFFFF" stroke="#8891EA" stroke-width="8" stroke-linecap="round" stroke-miterlimit="10" x1="1098.28" y1="529.084" x2="1098.28" y2="546.68"/>
        </g>
        <g>
          <polygon fill="#FFFFFF" points="1416.12,676.19 1357.96,748.57 1416.12,749.77 1225.04,749.77 1225.04,659.42 1416.12,437.19 
                      "/>
          <g>
            <path fill="#0C1238" d="M1415.158,497.07l-0.12-59.83l1.472,1.472l-95.89-0.052l-47.945-0.135
              c-15.982-0.023-31.963-0.14-47.945-0.085l1.2-1.2l0.139,78.077c0.086,26.026,0.004,52.052-0.039,78.077l-0.076,78.077
              c0.056,26.026,0.201,52.052,0.145,78.077l-1.368-1.368l38.25,0.017v2.703L1224.73,751l-1.444,0.004l-0.006-1.454
              c-0.102-26.026-0.045-52.052-0.026-78.077l0.068-78.077l0.067-78.077l0.191-78.077l0.003-1.15l1.147,0l47.945-0.013
              l47.945-0.051l95.89,0.089l1.121,0.001l0.004,1.125l0.226,59.83H1415.158z"/>
          </g>
          <g>
            <path fill="#0C1238" d="M1417.866,518.331c0.051,19.268,0.165,38.536,0.128,57.804l-0.022,28.902l-0.134,28.902l-0.134,28.902
              l0.061,28.902l0.087,28.902l0.046,14.451l-0.034,14.451l-0.003,1.353l-1.347-0.003c-22.64-0.042-45.28-0.192-67.919-0.118
              l-33.96,0.144l-33.96-0.025v-2.703l33.96-0.143l33.96,0.01c11.32,0.049,22.64,0.1,33.96,0.078l33.96-0.002l-1.409,1.409
              c-0.03-19.268,0.125-38.536,0.178-57.804l0.103-28.902l-0.051-28.902l-0.051-28.902l0.081-28.902
              c0.128-19.268-0.116-38.536-0.204-57.804H1417.866z"/>
          </g>
          <path fill="#E6E8F0" stroke="#F0F3F5" stroke-miterlimit="10" d="M1400.318,458.722h-160.443c-0.552,0-1-0.448-1-1v-11.624
            c0-0.552,0.448-1,1-1h160.443c0.552,0,1,0.448,1,1v11.624C1401.318,458.274,1400.87,458.722,1400.318,458.722z"/>
          <g>
            <path fill="#E6E8F0" d="M1238.538,467.445c13.587-0.084,27.173-0.121,40.76-0.055l20.38,0.141
              c6.793,0.061,13.587-0.03,20.38-0.038c13.587-0.116,27.173-0.022,40.76,0.038c6.793,0.029,13.587-0.022,20.38-0.082
              c6.793-0.046,13.587,0,20.38-0.005v1.802c-13.587,0.111-27.173,0.144-40.76,0.036c-13.587,0.002-27.173,0.027-40.76-0.09
              c-6.793-0.025-13.587-0.117-20.38-0.088l-20.38,0.054c-6.793,0.022-13.587-0.048-20.38-0.067
              c-6.793-0.007-13.587,0.107-20.38,0.154V467.445z"/>
          </g>
        </g>
        <g>
          <path fill="#E6E8F0" d="M891.691,362.56c36.392-0.084,72.784-0.121,109.176-0.055l54.588,0.141
            c18.196,0.062,36.392-0.034,54.588-0.043l218.352-0.043v1.802c-36.392,0.111-72.784,0.144-109.176,0.036l-109.176-0.09
            l-54.588-0.088l-54.588,0.054l-54.588-0.067l-54.588,0.154V362.56z"/>
        </g>
        <g>
          <g>
            <path fill="none" stroke="#8891EA" stroke-width="6" stroke-miterlimit="10" d="M1320.621,638.413L1320.621,638.413
              c-17.878,0-32.371-14.493-32.371-32.371v-21.697c0-1.626,1.318-2.943,2.943-2.943h58.854c1.626,0,2.943,1.318,2.943,2.943
              v21.697C1352.991,623.92,1338.499,638.413,1320.621,638.413z"/>
            <path fill="none" stroke="#8891EA" stroke-width="6" stroke-miterlimit="10" d="M1296.851,581.402v-9.132
              c0-13.101,10.62-23.722,23.722-23.722l0,0c13.101,0,23.722,10.621,23.722,23.722v9.132"/>
          </g>
          <circle fill="#8891EA" cx="1320.573" cy="604.505" r="5.88"/>
          
            <line fill="#FFFFFF" stroke="#8891EA" stroke-width="6" stroke-linecap="round" stroke-miterlimit="10" x1="1320.573" y1="603.3" x2="1320.573" y2="616.248"/>
        </g>
      </g>
    </g>
    <g>
      <path fill="#E6E8F0" d="M966.352,697.357l-0.029,13.745c-0.01,1.145,0.011,2.291-0.023,3.436l-0.124,3.436
        c-0.103,2.291,0.022,4.582,0.121,6.872l-1.912-1.912c10.168-0.857,20.337-0.478,30.505-0.36
        c5.084,0.104,10.168,0.133,15.252,0.178c5.084,0.006,10.168,0.199,15.252,0.287l7.626,0.168l7.626,0.264
        c2.542,0.09,5.084,0.032,7.626,0.023c2.542-0.035,5.084,0.047,7.626,0.065c10.168,0.377,20.337-0.052,30.505,0.201l7.626,0.04
        c2.542,0.006,5.084-0.283,7.626-0.394c5.084-0.14,10.168-0.184,15.252-0.268c5.084-0.072,10.168-0.071,15.252-0.204
        c2.542-0.07,5.084-0.088,7.626-0.118c2.542-0.019,5.084,0.1,7.626,0.143c10.168,0.462,20.337-0.303,30.505,0.192
        c2.542,0.145,5.084,0.163,7.626,0.139c2.542,0,5.084-0.038,7.626-0.099l15.252-0.314v3.936l-15.252,0.106
        c-5.084,0.024-10.168,0.012-15.252,0.3c-10.168,0.483-20.337-0.281-30.505-0.213c-20.337-1.165-40.673,0.704-61.01-0.137
        c-2.542,0.117-5.084,0.33-7.626,0.382c-2.542,0.092-5.084,0.173-7.626-0.018c-2.542-0.191-5.084-0.219-7.626-0.183
        c-2.542-0.002-5.084,0.099-7.626,0.081c-2.542-0.027-5.084,0.026-7.626-0.066c-1.271-0.039-2.542-0.079-3.813-0.09
        c-1.271-0.022-2.542-0.05-3.813,0.018c-2.542,0.097-5.084,0.355-7.626,0.327c-1.271-0.037-2.542-0.06-3.813-0.12l-3.813-0.238
        c-2.542-0.162-5.084-0.324-7.626-0.268c-2.542,0.109-5.084-0.092-7.626-0.222c-2.542-0.112-5.084-0.326-7.626-0.371
        c-2.542-0.094-5.084-0.061-7.626-0.038c-5.084,0.101-10.168,0.266-15.252,0.414c-2.542,0.071-5.084,0.122-7.626,0.123
        l-7.626-0.19l-1.598-0.04l0.032-1.527c0.047-2.291,0.153-4.582,0.009-6.872l-0.162-3.436c-0.047-1.145-0.04-2.291-0.062-3.436
        l-0.186-13.745H966.352z"/>
    </g>
    <g>
      <path fill="#E6E8F0" d="M1434.808,722.878l16.096,0.019l8.048,0.01c2.683,0.018,5.365-0.029,8.048,0.05l-1.89,1.89
        c0.07-3.44,0.218-6.88,0.086-10.32l-0.312-10.32c-0.261-6.88-0.364-13.76-0.339-20.639l0.314-41.279
        c0.052-6.88,0.033-13.76,0.144-20.639l0.275-20.639c0.057-6.88,0.274-13.76,0.375-20.639c0.058-6.88-0.069-13.76,0.033-20.639
        l0.226-20.639l-0.071-10.32l-0.046-5.16l0.032-5.16l0.11-20.639c0.012-3.44,0.045-6.88-0.068-10.32
        c-0.149-3.44-0.261-6.88-0.361-10.32l-0.328-41.279c-0.074-6.88-0.188-13.76-0.211-20.639c0.028-6.88,0.177-13.76,0.261-20.639
        l1.77,1.77c-4.37-0.095-8.74,0.001-13.111,0.001l-13.111,0.063c-4.37,0.001-8.74,0.084-13.111,0.016l-13.111-0.231
        c-4.37-0.118-8.74-0.058-13.111-0.055c-4.37-0.004-8.74,0.077-13.111,0.113l-26.221,0.29v-3.936l26.221-0.107l13.111-0.052
        c4.37-0.026,8.74,0.002,13.111-0.14l13.111-0.262c4.37-0.066,8.74,0.04,13.111,0.051l26.221,0.283l2.211,0.024l-0.016,2.172
        c-0.049,6.88-0.045,13.76-0.139,20.639c-0.152,6.88-0.325,13.76-0.304,20.639l0.499,41.279c-0.024,1.72-0.037,3.44-0.138,5.16
        l-0.297,5.16c-0.137,3.44-0.045,6.88,0.01,10.32c0.12,6.88,0.479,13.76,0.59,20.639c0.273,6.88-0.127,13.76-0.227,20.639
        c-0.014,6.88,0.146,13.76,0.091,20.639c0.051,6.88-0.202,13.76-0.162,20.639c0.04,3.44,0.226,6.88,0.324,10.32
        c0.061,3.44,0.004,6.88-0.082,10.32l-0.356,10.32c-0.047,1.72-0.141,3.44-0.149,5.16l0.002,5.16
        c-0.012,1.72,0.032,3.44-0.026,5.16l-0.164,5.16l-0.335,10.32c-0.306,13.76,0.065,27.519,0.289,41.279
        c0.074,3.44,0.091,6.88,0.13,10.32c0.059,3.44-0.071,6.88-0.098,10.32l-0.153,10.32c-0.053,1.72,0.021,3.44,0.049,5.16
        l0.139,5.16l0.044,1.627l-1.73,0.06c-2.683,0.093-5.365,0.065-8.048,0.1l-8.048,0.061l-16.096,0.121V722.878z"/>
    </g>
  </g>
</svg>